<?xml version="1.0" encoding="iso-8859-1"?>
<!-- Generator: Adobe Illustrator 19.0.0, SVG Export Plug-In . SVG Version: 6.00 Build 0)  -->
<svg version="1.1" id="Layer_1" xmlns="http://www.w3.org/2000/svg" xmlns:xlink="http://www.w3.org/1999/xlink" x="0px" y="0px"
	 viewBox="0 0 512 512" style="enable-background:new 0 0 512 512;" xml:space="preserve">
<g>
	<g>
		<g>
			<path d="M86.347,80.922V59.863h3.808c10.853,0,19.685-8.829,19.685-19.682c0-10.853-8.83-19.685-19.685-19.685H74.748V8.085
				c0-4.466-3.619-8.084-8.084-8.084s-8.084,3.618-8.084,8.084v12.413H43.173c-10.853,0-19.685,8.83-19.685,19.684
				c0,10.852,8.83,19.682,19.685,19.682h3.808v21.059C20.129,86.949,0,110.965,0,139.61V490.22c0,1.247,0.129,2.463,0.331,3.653
				c0.041,0.242,0.063,0.492,0.112,0.731c0.056,0.275,0.142,0.539,0.209,0.811c0.105,0.427,0.198,0.858,0.329,1.274
				c0.577,1.851,1.411,3.584,2.433,5.188c0.107,0.168,0.199,0.347,0.312,0.512c0.672,0.993,1.438,1.914,2.259,2.782
				c0.137,0.144,0.261,0.301,0.402,0.442c0.141,0.141,0.297,0.265,0.442,0.402c2.386,2.26,5.269,4.002,8.481,5.004
				c0.638,0.198,1.291,0.363,1.952,0.503c0.045,0.01,0.088,0.025,0.133,0.035c0.324,0.067,0.66,0.099,0.99,0.152
				c1.109,0.175,2.238,0.292,3.394,0.292h89.77c1.158,0,2.285-0.117,3.394-0.292c0.33-0.052,0.665-0.085,0.99-0.152
				c0.045-0.01,0.088-0.025,0.133-0.035c0.662-0.14,1.314-0.304,1.952-0.503c3.213-1.001,6.094-2.743,8.481-5.004
				c0.144-0.137,0.302-0.261,0.442-0.402c0.141-0.141,0.265-0.297,0.402-0.442c0.821-0.868,1.588-1.789,2.259-2.782
				c0.112-0.165,0.204-0.343,0.312-0.512c1.022-1.604,1.856-3.337,2.433-5.188c0.129-0.416,0.223-0.847,0.329-1.274
				c0.067-0.272,0.152-0.536,0.209-0.811c0.05-0.239,0.071-0.488,0.112-0.731c0.203-1.19,0.331-2.406,0.331-3.653V208.059
				c0-4.466-3.619-8.084-8.084-8.084s-8.084,3.618-8.084,8.084V490.22c0,3.094-2.517,5.61-5.61,5.61H21.779
				c-3.094,0-5.61-2.517-5.61-5.61V147.694h100.991v33.417c0,4.466,3.618,8.084,8.084,8.084c4.466,0,8.084-3.618,8.084-8.084V139.61
				C133.328,110.965,113.199,86.949,86.347,80.922z M43.173,43.695c-1.939,0-3.516-1.576-3.516-3.514
				c0-1.939,1.577-3.516,3.516-3.516h46.983c1.939,0,3.516,1.577,3.516,3.516c0,1.938-1.577,3.514-3.516,3.514H78.263H55.065H43.173
				z M70.178,59.863v19.587h-7.029V59.863H70.178z M16.926,131.527c3.807-20.408,21.738-35.908,43.232-35.908h11.813
				c1.7,0,3.488,0.112,5.318,0.335c0.326,0.04,0.651,0.059,0.974,0.059c0.174,0,0.345-0.013,0.517-0.024
				c18.944,2.424,34.152,16.936,37.623,35.537H16.926z"/>
			<path d="M510.949,142.759c-2.2-3.884-7.133-5.25-11.018-3.05l-50.057,28.347c-2.534,1.436-4.1,4.122-4.1,7.034v37.669h-9.831
				v-4.791c0-4.466-3.618-8.084-8.084-8.084c-4.466,0-8.084,3.618-8.084,8.084v4.791h-1.009c-4.466,0-8.084,3.618-8.084,8.084
				c0,4.466,3.618,8.084,8.084,8.084h1.009v4.791c0,4.466,3.618,8.084,8.084,8.084c4.466,0,8.084-3.618,8.084-8.084v-4.791h9.831
				v19.638c-8.513,1.469-15.015,8.886-15.015,17.812v103.107v40.39c0,8.378,5.731,15.424,13.474,17.474v18.195
				c0,27.729-22.559,50.286-50.288,50.286c-27.729,0-50.286-22.558-50.286-50.286V98.091c0-36.643-29.813-66.454-66.459-66.454
				h-19.122c-3.189-6.579-9.916-11.139-17.705-11.139h-15.406V8.085c0-4.466-3.618-8.084-8.084-8.084
				c-4.466,0-8.084,3.618-8.084,8.084v12.413h-15.406c-10.853,0-19.684,8.83-19.684,19.684c0,10.852,8.83,19.682,19.684,19.682
				h3.806v21.059c-26.851,6.027-46.981,30.043-46.981,58.688v350.609c0,12.01,9.77,21.779,21.779,21.779h89.772
				c12.01,0,21.779-9.769,21.779-21.779V208.059c0-4.466-3.618-8.084-8.084-8.084s-8.084,3.618-8.084,8.084V490.22
				c0,3.094-2.517,5.61-5.61,5.61h-89.772c-3.094,0-5.61-2.517-5.61-5.61V147.694h100.993v33.417c0,4.466,3.619,8.084,8.084,8.084
				s8.084-3.618,8.084-8.084V139.61c0-28.645-20.13-52.663-46.983-58.688V59.863h3.808c8.152,0,15.161-4.981,18.146-12.06h18.681
				c27.731,0,50.29,22.558,50.29,50.286v347.454c0,36.643,29.811,66.454,66.454,66.454c36.644,0,66.456-29.811,66.456-66.454
				v-18.818c6.75-2.63,11.554-9.183,11.554-16.852v-40.39V328.35c0-4.466-3.618-8.084-8.084-8.084c-4.466,0-8.084,3.618-8.084,8.084
				v33.05h-8.859v-95.022c0-1.062,0.865-1.926,1.926-1.926h5.005c1.063,0,1.928,0.864,1.928,1.926v36.562
				c0,4.466,3.618,8.084,8.084,8.084c4.466,0,8.084-3.618,8.084-8.084v-36.562c0-7.071-4.086-13.19-10.013-16.166v-21.285h1.928
				c4.466,0,8.084-3.618,8.084-8.084s-3.618-8.084-8.084-8.084h-1.928v-32.957l45.957-26.026
				C511.783,151.578,513.149,146.645,510.949,142.759z M266.621,131.526h-99.479c3.808-20.407,21.739-35.908,43.232-35.908h11.813
				c1.724,0,3.463,0.11,5.318,0.335c0.326,0.04,0.651,0.059,0.974,0.059c0.174,0,0.345-0.013,0.517-0.024
				C247.941,98.413,263.15,112.925,266.621,131.526z M213.367,79.451V59.863h7.029v19.587H213.367z M240.372,43.695H228.48h-23.197
				h-11.89c-1.939,0-3.516-1.576-3.516-3.514c0-1.939,1.577-3.516,3.516-3.516h46.981c1.939,0,3.516,1.577,3.516,3.516
				C243.888,42.119,242.311,43.695,240.372,43.695z M446.928,377.57h8.859v32.306c0,1.062-0.866,1.926-1.928,1.926h-5.005
				c-1.062,0-1.926-0.865-1.926-1.926V377.57z"/>
		</g>
	</g>
</g>
<g>
</g>
<g>
</g>
<g>
</g>
<g>
</g>
<g>
</g>
<g>
</g>
<g>
</g>
<g>
</g>
<g>
</g>
<g>
</g>
<g>
</g>
<g>
</g>
<g>
</g>
<g>
</g>
<g>
</g>
</svg>
